<svg xmlns="http://www.w3.org/2000/svg" viewBox="0 0 52.79 56.57"><defs><style>.cls-1{fill:#604422;stroke:#352514;}.cls-1,.cls-2{stroke-miterlimit:10;}.cls-2{fill:#f2cbc2;stroke:#604422;}.cls-3{fill:#1e1403;}</style></defs><title>Asset 2</title><g id="Layer_2" data-name="Layer 2"><g id="Layer_7" data-name="Layer 7"><path class="cls-1" d="M41.38,3s-2.38,3.62-2,3.62,8,1.23,8,1.23l-1.32,2.39,2.38,2.73-.79,1.68,3.44,1.67-3.36,1.42,2,3.35-2.3,1.15a5.17,5.17,0,0,1,4.06,1.58A4.08,4.08,0,0,1,52.15,25a5.88,5.88,0,0,1,.14,1.19,5.5,5.5,0,0,1-.22,1.62c-.15.49-.55,2.79-2.13,2.92-3.09.27,1,2,1,2L48.62,34.1l1.06,4.23-3,2.65,1.14,2.29s-1.59,2.63-2.91,2S44,48.13,44,48.13L39.88,49l-1.23,2.91-3,.88a16.21,16.21,0,0,0-2.74,1.68c-.62.62-4.23.88-4.41,0s-2.17,1.41-2.17,1.41L22.41,53l-4-.18L16,50.07,10.32,51.3,10,46.89s-3.35-1-5-.44-.26-4.68,1.94-4.68-2.82-.08-3.53.8-.17-6.71,1.77-7.5-3.53,1.32-3.89-2.83,2.39-3.88,2.39-3.88L2.29,28A6.49,6.49,0,0,1,4.76,23.6C7.15,21.66.88,26.51.53,26S3.18,13.87,4.59,13.7,11.12,12,11.12,12s-4.06.88-4.24.62S7.15,9.3,9.53,8.69l7.23-1.86-3-1.14,1.59-2.3s2.47,1.59,3.71.53L22.32,1.1s0,3.44,1.5,3.26,3.71-3.09,6.71-2.82,2.56,1.68,2.56,1.68Z"/><path class="cls-2" d="M31.5,18.57c-3-1.27-5.6-2.14-7.5-2.74-2.12-.66-3.35-.95-3.88-.35-.69.77.18,2.59.44,3.09a11.52,11.52,0,0,0-1.7-1.37c-1.72-1.13-3.7-1.75-3.95-1.37s.53.7.62,1.77a3,3,0,0,1-.09,1l-2.29-.88-.18,4a2.58,2.58,0,0,0-2.12-.88c-1.29.19-.11,6.87,0,8.83a.51.51,0,0,1-.11.42c-.28.23-1-.12-1.48-.42L10.15,33l-2.3.7a2.36,2.36,0,0,0,1.77,3c2.47.71-1.86,1.42-1.86,1.42l2.41.92-.73,2.08H14s.88,3.35,2.82,4.06c.06,0,.52.16.62,0s-.79-.74-.88-1.68a2.31,2.31,0,0,1,.66-1.66,1.22,1.22,0,0,1,.48-.37s.41-.15,1.9.53V40.1l1.1-.88h1.95L25,36.57l2.82,1.94,3.71.18.88,1.76,2.83-.18,1.41,2.65A7.76,7.76,0,0,1,37,42c.23-.47,1.42-2.85,2.59-2.74.75.06,1,1.12,1.34,1,.69-.16,0-4.37.29-4.41a7.67,7.67,0,0,0,2.07-.51,3.81,3.81,0,0,0,1.41-1.41l-2.59-1.59,2.77-1.23-3-1.59L43.5,23,40,23.69a5.09,5.09,0,0,0,.71-4A4.94,4.94,0,0,0,39,17.16l-1.32,2.47s-5.83-1.94-6-5.12a6.49,6.49,0,0,0-.08-.81C31.53,13.7,31.51,16.35,31.5,18.57Z"/><path class="cls-2" d="M21.26,43l3.18.53v-2l1.15,1,.74-1.45,2,1.76,2.39-1.06L33,43s-1.51,5.29-6.67,4.68S21.26,43,21.26,43Z"/><path class="cls-2" d="M27.88,34.54c-.84.17-2,.39-3.35.62-1.57.26-1.76.25-1.94.17-1.46-.64-.71-5.55,0-9"/><circle class="cls-3" cx="17.5" cy="25.98" r="1.68"/><circle class="cls-3" cx="30.53" cy="25.66" r="1.68"/></g></g></svg>